<?xml version="1.0" standalone="no"?><svg xmlns:xlink="http://www.w3.org/1999/xlink" xmlns="http://www.w3.org/2000/svg" viewBox="0 0 1920 1386.6956870510558" preserveAspectRatio="xMaxYMax slice"><g transform="scale(2.692612984565157)"><rect x="0" y="0" width="713.0769230769231" height="515" fill="#f1f3f4"/><rect x="247.59615384615384" y="9.903846153846153" width="19.807692307692307" height="19.807692307692307" fill="#f1f3f4"/><g transform="translate(257.5,9.9) scale(0.495) rotate(0)"><path d="M10 0H20L0 20V10L10 0Z" fill="#e8e9ea"/><path d="M20 10V20H10L20 10Z" fill="#e8e9ea"/></g><g transform="translate(406.06,9.9) scale(0.9904999999999999) rotate(0)"><path d="M10 0L20 10L10 20L0 10L10 0Z" fill="#f6eba5"/></g><rect x="445.67307692307685" y="9.903846153846153" width="19.807692307692307" height="19.807692307692307" fill="#f1f3f4"/><polygon points="455.57,9.9 455.57,19.8 445.67,19.8" fill="#dedfe0"/><g transform="translate(445.67,19.81) scale(0.495) rotate(0)"><path d="M10 0L20 10L10 20L0 10L10 0Z" fill="#d6d8d8"/></g><polygon points="604.13,9.9 623.9399999999999,29.71 604.13,29.71" fill="#afb0af"/><g transform="translate(643.75,9.9) scale(0.9904999999999999) rotate(0)"><path d="M10 0L20 10L10 20L0 10L10 0Z" fill="#d1d1d1"/></g><rect x="9.903846153846153" y="49.51923076923077" width="19.807692307692307" height="19.807692307692307" fill="#f1f3f4"/><g transform="translate(9.9,49.52) scale(0.495) rotate(0)"><path d="M10 0H20L0 20V10L10 0Z" fill="#bbbcbc"/><path d="M20 10V20H10L20 10Z" fill="#bbbcbc"/></g><g transform="translate(19.81,59.42) scale(0.495) rotate(0)"><path d="M10 0L20 10L10 20L0 10L10 0Z" fill="#f1f2ee"/></g><rect x="89.13461538461539" y="49.51923076923077" width="19.807692307692307" height="19.807692307692307" fill="#f1f3f4"/><g transform="translate(99.04,49.52) scale(0.495) rotate(0)"><path d="M10 0H20L0 20V10L10 0Z" fill="#e2e3e4"/><path d="M20 10V20H10L20 10Z" fill="#e2e3e4"/></g><polygon points="99.03,59.42 99.03,69.32000000000001 89.13,69.32000000000001" fill="#c1c2c2"/><polygon points="99.04,59.42 108.94000000000001,69.32000000000001 99.04,69.32000000000001" fill="#c2c4c3"/><g transform="translate(128.75,49.52) scale(0.9904999999999999) rotate(0)"><path d="M10 0H20L0 20V10L10 0Z" fill="#979896"/><path d="M20 10V20H10L20 10Z" fill="#979896"/></g><g transform="translate(168.37,49.52) scale(0.9904999999999999) rotate(0)"><path d="M10 0L20 10L10 20L0 10L10 0Z" fill="#80807e"/></g><rect x="247.59615384615384" y="49.51923076923077" width="19.807692307692307" height="19.807692307692307" fill="#f1f3f4"/><g transform="translate(257.5,59.42) scale(0.495) rotate(0)"><path d="M10 0L20 10L10 20L0 10L10 0Z" fill="#dbdcdc"/></g><g transform="translate(406.06,49.52) scale(0.9904999999999999) rotate(0)"><path d="M10 0L20 10L10 20L0 10L10 0Z" fill="#f6eba5"/></g><rect x="445.67307692307685" y="49.51923076923077" width="19.807692307692307" height="19.807692307692307" fill="#f1f3f4"/><polygon points="445.67,49.52 455.57,49.52 455.57,59.42" fill="#d2d2d3"/><polygon points="455.58,49.52 465.47999999999996,49.52 465.47999999999996,59.42" fill="#e1e3e3"/><g transform="translate(455.58,59.42) scale(0.495) rotate(0)"><path d="M10 0H20L0 20V10L10 0Z" fill="#f1f2ec"/><path d="M20 10V20H10L20 10Z" fill="#f1f2ec"/></g><g transform="translate(564.52,49.52) scale(0.9904999999999999) rotate(0)"><path d="M10 0L20 10L10 20L0 10L10 0Z" fill="#b3b4b4"/></g><rect x="683.3653846153846" y="49.51923076923077" width="19.807692307692307" height="19.807692307692307" fill="#f1f3f4"/><polygon points="693.27,49.52 703.17,49.52 693.27,59.42" fill="#f9e466"/><rect x="49.51923076923077" y="89.13461538461539" width="19.807692307692307" height="19.807692307692307" fill="#f1f3f4"/><g transform="translate(49.52,99.04) scale(0.495) rotate(0)"><path d="M10 0L20 10L10 20L0 10L10 0Z" fill="#fedb0e"/></g><rect x="287.2115384615384" y="89.13461538461539" width="19.807692307692307" height="19.807692307692307" fill="#f1f3f4"/><polygon points="307.02,89.13 307.02,99.03 297.12,99.03" fill="#f3efcf"/><rect x="326.82692307692304" y="89.13461538461539" width="19.807692307692307" height="19.807692307692307" fill="#f1f3f4"/><rect x="406.05769230769226" y="89.13461538461539" width="19.807692307692307" height="19.807692307692307" fill="#f1f3f4"/><g transform="translate(415.96,99.04) scale(0.495) rotate(0)"><path d="M10 0L20 10L10 20L0 10L10 0Z" fill="#e7e9ea"/></g><polygon points="623.9399999999999,89.13 623.9399999999999,108.94 604.13,108.94" fill="#dfe1e1"/><g transform="translate(643.75,89.13) scale(0.9904999999999999) rotate(0)"><path d="M10 0L20 10L10 20L0 10L10 0Z" fill="#7c7c7b"/></g><g transform="translate(49.52,128.75) scale(0.9904999999999999) rotate(0)"><path d="M10 0L20 10L10 20L0 10L10 0Z" fill="#d5d6d6"/></g><g transform="translate(128.75,128.75) scale(0.9904999999999999) rotate(0)"><path d="M10 0L20 10L10 20L0 10L10 0Z" fill="#fbe149"/></g><rect x="207.98076923076923" y="128.75" width="19.807692307692307" height="19.807692307692307" fill="#f1f3f4"/><polygon points="217.88,128.75 227.78,128.75 227.78,138.65" fill="#b4b5b5"/><g transform="translate(217.88,138.65) scale(0.495) rotate(0)"><path d="M10 0H20L0 20V10L10 0Z" fill="#878785"/><path d="M20 10V20H10L20 10Z" fill="#878785"/></g><rect x="406.05769230769226" y="128.75" width="19.807692307692307" height="19.807692307692307" fill="#f1f3f4"/><polygon points="415.96,128.75 415.96,138.65 406.06,138.65" fill="#f1f3f4"/><polygon points="415.96,128.75 425.85999999999996,138.65 415.96,138.65" fill="#9d9e9d"/><polygon points="9.9,168.37 29.71,188.18 9.9,188.18" fill="#bebfbf"/><g transform="translate(89.13,168.37) scale(0.9904999999999999) rotate(0)"><path d="M10 0L20 10L10 20L0 10L10 0Z" fill="#eceeef"/></g><polygon points="168.37,168.37 188.18,168.37 168.37,188.18" fill="#d2d2d2"/><g transform="translate(406.06,168.37) scale(0.9904999999999999) rotate(0)"><path d="M10 0L20 10L10 20L0 10L10 0Z" fill="#f4edbc"/></g><polygon points="643.75,168.37 663.56,168.37 663.56,188.18" fill="#fedb17"/><polygon points="29.71,207.98 29.71,227.79 9.9,227.79" fill="#c7c7c8"/><polygon points="128.75,207.98 148.56,207.98 128.75,227.79" fill="#eceeef"/><g transform="translate(247.6,207.98) scale(0.9904999999999999) rotate(0)"><path d="M10 0L20 10L10 20L0 10L10 0Z" fill="#eceeef"/></g><g transform="translate(406.06,207.98) scale(0.9904999999999999) rotate(0)"><path d="M10 0H20L0 20V10L10 0Z" fill="#fcdf3a"/><path d="M20 10V20H10L20 10Z" fill="#fcdf3a"/></g><rect x="445.67307692307685" y="207.98076923076923" width="19.807692307692307" height="19.807692307692307" fill="#f1f3f4"/><rect x="604.1346153846154" y="207.98076923076923" width="19.807692307692307" height="19.807692307692307" fill="#f1f3f4"/><polygon points="604.13,217.88 614.03,217.88 604.13,227.78" fill="#fbe03f"/><rect x="643.75" y="207.98076923076923" width="19.807692307692307" height="19.807692307692307" fill="#f1f3f4"/><polygon points="653.65,217.88 653.65,227.78 643.75,227.78" fill="#f4edbe"/><rect x="9.903846153846153" y="247.59615384615384" width="19.807692307692307" height="19.807692307692307" fill="#f1f3f4"/><polygon points="9.9,247.6 19.8,247.6 19.8,257.5" fill="#f6eaa0"/><polygon points="19.81,247.6 29.71,257.5 19.81,257.5" fill="#f0f2f3"/><g transform="translate(9.9,257.5) scale(0.495) rotate(0)"><path d="M10 0L20 10L10 20L0 10L10 0Z" fill="#d3d4d4"/></g><rect x="326.82692307692304" y="247.59615384615384" width="19.807692307692307" height="19.807692307692307" fill="#f1f3f4"/><g transform="translate(336.73,247.6) scale(0.495) rotate(0)"><path d="M10 0H20L0 20V10L10 0Z" fill="#eff1f2"/><path d="M20 10V20H10L20 10Z" fill="#eff1f2"/></g><g transform="translate(336.73,257.5) scale(0.495) rotate(0)"><path d="M10 0L20 10L10 20L0 10L10 0Z" fill="#898a88"/></g><g transform="translate(445.67,247.6) scale(0.9904999999999999) rotate(0)"><path d="M10 0H20L0 20V10L10 0Z" fill="#f2f2e6"/><path d="M20 10V20H10L20 10Z" fill="#f2f2e6"/></g><g transform="translate(524.9,247.6) scale(0.9904999999999999) rotate(0)"><path d="M10 0L20 10L10 20L0 10L10 0Z" fill="#f5ecb5"/></g><rect x="564.5192307692307" y="247.59615384615384" width="19.807692307692307" height="19.807692307692307" fill="#f1f3f4"/><polygon points="574.42,247.6 584.3199999999999,247.6 574.42,257.5" fill="#f1f2eb"/><g transform="translate(574.42,257.5) scale(0.495) rotate(0)"><path d="M10 0H20L0 20V10L10 0Z" fill="#fddd25"/><path d="M20 10V20H10L20 10Z" fill="#fddd25"/></g><polygon points="623.9399999999999,247.6 623.9399999999999,267.40999999999997 604.13,267.40999999999997" fill="#f0f2f3"/><polygon points="9.9,287.21 29.71,287.21 29.71,307.02" fill="#e4e5e6"/><rect x="89.13461538461539" y="287.2115384615384" width="19.807692307692307" height="19.807692307692307" fill="#f1f3f4"/><g transform="translate(89.13,287.21) scale(0.495) rotate(0)"><path d="M10 0H20L0 20V10L10 0Z" fill="#fddd28"/><path d="M20 10V20H10L20 10Z" fill="#fddd28"/></g><g transform="translate(99.04,297.12) scale(0.495) rotate(0)"><path d="M10 0H20L0 20V10L10 0Z" fill="#8e8f8d"/><path d="M20 10V20H10L20 10Z" fill="#8e8f8d"/></g><rect x="128.75" y="287.2115384615384" width="19.807692307692307" height="19.807692307692307" fill="#f1f3f4"/><polygon points="168.37,287.21 188.18,287.21 188.18,307.02" fill="#d7d8d9"/><rect x="287.2115384615384" y="287.2115384615384" width="19.807692307692307" height="19.807692307692307" fill="#f1f3f4"/><polygon points="406.06,287.21 425.87,307.02 406.06,307.02" fill="#eff1f2"/><polygon points="465.48,287.21 465.48,307.02 445.67,307.02" fill="#fdde2b"/><g transform="translate(683.37,287.21) scale(0.9904999999999999) rotate(0)"><path d="M10 0H20L0 20V10L10 0Z" fill="#f2f1e0"/><path d="M20 10V20H10L20 10Z" fill="#f2f1e0"/></g><rect x="9.903846153846153" y="326.82692307692304" width="19.807692307692307" height="19.807692307692307" fill="#f1f3f4"/><polygon points="69.33,326.83 69.33,346.64 49.52,346.64" fill="#fddc21"/><rect x="89.13461538461539" y="326.82692307692304" width="19.807692307692307" height="19.807692307692307" fill="#f1f3f4"/><g transform="translate(89.13,336.73) scale(0.495) rotate(0)"><path d="M10 0L20 10L10 20L0 10L10 0Z" fill="#a3a4a3"/></g><polygon points="99.04,336.73 108.94000000000001,336.73 99.04,346.63" fill="#c6c7c7"/><rect x="406.05769230769226" y="326.82692307692304" width="19.807692307692307" height="19.807692307692307" fill="#f1f3f4"/><g transform="translate(604.13,326.83) scale(0.9904999999999999) rotate(0)"><path d="M10 0H20L0 20V10L10 0Z" fill="#fcde32"/><path d="M20 10V20H10L20 10Z" fill="#fcde32"/></g><g transform="translate(643.75,326.83) scale(0.9904999999999999) rotate(0)"><path d="M10 0H20L0 20V10L10 0Z" fill="#e9ebeb"/><path d="M20 10V20H10L20 10Z" fill="#e9ebeb"/></g><g transform="translate(168.37,366.44) scale(0.9904999999999999) rotate(0)"><path d="M10 0H20L0 20V10L10 0Z" fill="#babbbb"/><path d="M20 10V20H10L20 10Z" fill="#babbbb"/></g><polygon points="207.98,366.44 227.79,386.25 207.98,386.25" fill="#a0a1a0"/><polygon points="406.06,366.44 425.87,366.44 406.06,386.25" fill="#f1f2ec"/><rect x="445.67307692307685" y="366.4423076923077" width="19.807692307692307" height="19.807692307692307" fill="#f1f3f4"/><g transform="translate(455.58,366.44) scale(0.495) rotate(0)"><path d="M10 0H20L0 20V10L10 0Z" fill="#fcde31"/><path d="M20 10V20H10L20 10Z" fill="#fcde31"/></g><polygon points="455.58,376.35 465.47999999999996,376.35 465.47999999999996,386.25" fill="#868684"/><polygon points="604.13,366.44 623.9399999999999,366.44 623.9399999999999,386.25" fill="#fae251"/><rect x="247.59615384615384" y="406.05769230769226" width="19.807692307692307" height="19.807692307692307" fill="#f1f3f4"/><g transform="translate(247.6,406.06) scale(0.495) rotate(0)"><path d="M10 0H20L0 20V10L10 0Z" fill="#d7d9d9"/><path d="M20 10V20H10L20 10Z" fill="#d7d9d9"/></g><g transform="translate(257.5,415.96) scale(0.495) rotate(0)"><path d="M10 0L20 10L10 20L0 10L10 0Z" fill="#d0d1d1"/></g><rect x="287.2115384615384" y="406.05769230769226" width="19.807692307692307" height="19.807692307692307" fill="#f1f3f4"/><polygon points="297.10999999999996,406.06 297.10999999999996,415.96 287.21,415.96" fill="#dcddde"/><polygon points="544.7099999999999,406.06 544.7099999999999,425.87 524.9,425.87" fill="#f8e67a"/><rect x="564.5192307692307" y="406.05769230769226" width="19.807692307692307" height="19.807692307692307" fill="#f1f3f4"/><g transform="translate(564.52,406.06) scale(0.495) rotate(0)"><path d="M10 0L20 10L10 20L0 10L10 0Z" fill="#f3f0d7"/></g><polygon points="574.42,415.96 584.3199999999999,415.96 574.42,425.85999999999996" fill="#8d8d8b"/><polygon points="604.13,406.06 623.9399999999999,425.87 604.13,425.87" fill="#d8d9d9"/><g transform="translate(89.13,445.67) scale(0.9904999999999999) rotate(0)"><path d="M10 0L20 10L10 20L0 10L10 0Z" fill="#d2d3d3"/></g><rect x="247.59615384615384" y="445.67307692307685" width="19.807692307692307" height="19.807692307692307" fill="#f1f3f4"/><g transform="translate(257.5,445.67) scale(0.495) rotate(0)"><path d="M10 0H20L0 20V10L10 0Z" fill="#d5d6d6"/><path d="M20 10V20H10L20 10Z" fill="#d5d6d6"/></g><polygon points="247.6,455.58 257.5,455.58 257.5,465.47999999999996" fill="#f9e56f"/><g transform="translate(326.83,445.67) scale(0.9904999999999999) rotate(0)"><path d="M10 0L20 10L10 20L0 10L10 0Z" fill="#fddd25"/></g><g transform="translate(366.44,445.67) scale(0.9904999999999999) rotate(0)"><path d="M10 0L20 10L10 20L0 10L10 0Z" fill="#f9e56f"/></g><rect x="485.2884615384615" y="445.67307692307685" width="19.807692307692307" height="19.807692307692307" fill="#f1f3f4"/><g transform="translate(495.19,445.67) scale(0.495) rotate(0)"><path d="M10 0H20L0 20V10L10 0Z" fill="#fedb13"/><path d="M20 10V20H10L20 10Z" fill="#fedb13"/></g><g transform="translate(524.9,445.67) scale(0.9904999999999999) rotate(0)"><path d="M10 0L20 10L10 20L0 10L10 0Z" fill="#cbcccc"/></g><polygon points="89.13,485.29 108.94,485.29 108.94,505.1" fill="#c9c9c9"/><g transform="translate(207.98,485.29) scale(0.9904999999999999) rotate(0)"><path d="M10 0H20L0 20V10L10 0Z" fill="#a4a5a4"/><path d="M20 10V20H10L20 10Z" fill="#a4a5a4"/></g><g transform="translate(366.44,485.29) scale(0.9904999999999999) rotate(0)"><path d="M10 0H20L0 20V10L10 0Z" fill="#dcddde"/><path d="M20 10V20H10L20 10Z" fill="#dcddde"/></g><g transform="translate(564.52,485.29) scale(0.9904999999999999) rotate(0)"><path d="M10 0H20L0 20V10L10 0Z" fill="#feda0a"/><path d="M20 10V20H10L20 10Z" fill="#feda0a"/></g><g transform="translate(643.75,485.29) scale(0.9904999999999999) rotate(0)"><path d="M10 0L20 10L10 20L0 10L10 0Z" fill="#9d9d9c"/></g></g></svg>